<svg width="24" height="25" viewBox="0 0 24 25" fill="none" xmlns="http://www.w3.org/2000/svg">
<g id="settings">
<path id="icon" d="M9.2502 22.5L8.8502 19.3C8.63353 19.2167 8.42936 19.1167 8.2377 19C8.04603 18.8833 7.85853 18.7583 7.6752 18.625L4.7002 19.875L1.9502 15.125L4.5252 13.175C4.50853 13.0583 4.5002 12.9458 4.5002 12.8375V12.1625C4.5002 12.0542 4.50853 11.9417 4.5252 11.825L1.9502 9.875L4.7002 5.125L7.6752 6.375C7.85853 6.24167 8.0502 6.11667 8.2502 6C8.4502 5.88333 8.6502 5.78333 8.8502 5.7L9.2502 2.5H14.7502L15.1502 5.7C15.3669 5.78333 15.571 5.88333 15.7627 6C15.9544 6.11667 16.1419 6.24167 16.3252 6.375L19.3002 5.125L22.0502 9.875L19.4752 11.825C19.4919 11.9417 19.5002 12.0542 19.5002 12.1625V12.8375C19.5002 12.9458 19.4835 13.0583 19.4502 13.175L22.0252 15.125L19.2752 19.875L16.3252 18.625C16.1419 18.7583 15.9502 18.8833 15.7502 19C15.5502 19.1167 15.3502 19.2167 15.1502 19.3L14.7502 22.5H9.2502ZM11.0002 20.5H12.9752L13.3252 17.85C13.8419 17.7167 14.321 17.5208 14.7627 17.2625C15.2044 17.0042 15.6085 16.6917 15.9752 16.325L18.4502 17.35L19.4252 15.65L17.2752 14.025C17.3585 13.7917 17.4169 13.5458 17.4502 13.2875C17.4835 13.0292 17.5002 12.7667 17.5002 12.5C17.5002 12.2333 17.4835 11.9708 17.4502 11.7125C17.4169 11.4542 17.3585 11.2083 17.2752 10.975L19.4252 9.35L18.4502 7.65L15.9752 8.7C15.6085 8.31667 15.2044 7.99583 14.7627 7.7375C14.321 7.47917 13.8419 7.28333 13.3252 7.15L13.0002 4.5H11.0252L10.6752 7.15C10.1585 7.28333 9.67936 7.47917 9.2377 7.7375C8.79603 7.99583 8.39186 8.30833 8.0252 8.675L5.5502 7.65L4.5752 9.35L6.7252 10.95C6.64186 11.2 6.58353 11.45 6.5502 11.7C6.51686 11.95 6.5002 12.2167 6.5002 12.5C6.5002 12.7667 6.51686 13.025 6.5502 13.275C6.58353 13.525 6.64186 13.775 6.7252 14.025L4.5752 15.65L5.5502 17.35L8.0252 16.3C8.39186 16.6833 8.79603 17.0042 9.2377 17.2625C9.67936 17.5208 10.1585 17.7167 10.6752 17.85L11.0002 20.5ZM12.0502 16C13.0169 16 13.8419 15.6583 14.5252 14.975C15.2085 14.2917 15.5502 13.4667 15.5502 12.5C15.5502 11.5333 15.2085 10.7083 14.5252 10.025C13.8419 9.34167 13.0169 9 12.0502 9C11.0669 9 10.2377 9.34167 9.5627 10.025C8.8877 10.7083 8.5502 11.5333 8.5502 12.5C8.5502 13.4667 8.8877 14.2917 9.5627 14.975C10.2377 15.6583 11.0669 16 12.0502 16Z" fill="#1D1B20"/>
</g>
</svg>
